<svg width="157" height="40" viewBox="0 0 157 40" fill="none" xmlns="http://www.w3.org/2000/svg">
<rect x="0.5" y="0.5" width="156" height="39" rx="5.5" fill="white"/>
<rect x="0.5" y="0.5" width="156" height="39" rx="5.5" stroke="#E8E7E3"/>
<path d="M19 25H21V21H25V19H21V15H19V19H15V21H19V25ZM20 30C18.6167 30 17.3167 29.7417 16.1 29.225C14.8833 28.6917 13.825 27.975 12.925 27.075C12.025 26.175 11.3083 25.1167 10.775 23.9C10.2583 22.6833 10 21.3833 10 20C10 18.6167 10.2583 17.3167 10.775 16.1C11.3083 14.8833 12.025 13.825 12.925 12.925C13.825 12.025 14.8833 11.3167 16.1 10.8C17.3167 10.2667 18.6167 10 20 10C21.3833 10 22.6833 10.2667 23.9 10.8C25.1167 11.3167 26.175 12.025 27.075 12.925C27.975 13.825 28.6833 14.8833 29.2 16.1C29.7333 17.3167 30 18.6167 30 20C30 21.3833 29.7333 22.6833 29.2 23.9C28.6833 25.1167 27.975 26.175 27.075 27.075C26.175 27.975 25.1167 28.6917 23.9 29.225C22.6833 29.7417 21.3833 30 20 30ZM20 28C22.2333 28 24.125 27.225 25.675 25.675C27.225 24.125 28 22.2333 28 20C28 17.7667 27.225 15.875 25.675 14.325C24.125 12.775 22.2333 12 20 12C17.7667 12 15.875 12.775 14.325 14.325C12.775 15.875 12 17.7667 12 20C12 22.2333 12.775 24.125 14.325 25.675C15.875 27.225 17.7667 28 20 28Z" fill="#38AEE0"/>
<path d="M42 23L45.836 13.662H47.166L51.058 23H49.028L48.272 21.124H44.674L43.904 23H42ZM45.248 19.542H47.656L46.452 16.476L45.248 19.542ZM56.3614 23L56.2774 22.482C56.1094 22.6593 55.89 22.818 55.6194 22.958C55.3487 23.0887 55.0267 23.154 54.6534 23.154C54.1587 23.154 53.7247 23.0607 53.3514 22.874C52.978 22.6873 52.6607 22.4353 52.3994 22.118C52.1474 21.7913 51.956 21.4133 51.8254 20.984C51.6947 20.5547 51.6294 20.0927 51.6294 19.598C51.6294 19.1593 51.6994 18.73 51.8394 18.31C51.9794 17.89 52.1894 17.5167 52.4694 17.19C52.7494 16.854 53.0994 16.588 53.5194 16.392C53.9394 16.1867 54.434 16.084 55.0034 16.084C55.3674 16.084 55.7687 16.1493 56.2074 16.28V13.746L58.0274 13.466V23H56.3614ZM56.2074 17.75C55.8434 17.6193 55.5167 17.554 55.2274 17.554C54.9194 17.554 54.6487 17.61 54.4154 17.722C54.1914 17.834 54.0047 17.988 53.8554 18.184C53.706 18.3707 53.594 18.5853 53.5194 18.828C53.4447 19.0613 53.4074 19.304 53.4074 19.556C53.4074 19.8453 53.4354 20.1207 53.4914 20.382C53.5567 20.634 53.6547 20.858 53.7854 21.054C53.916 21.2407 54.0794 21.39 54.2754 21.502C54.4807 21.614 54.728 21.67 55.0174 21.67C55.2414 21.67 55.47 21.614 55.7034 21.502C55.9367 21.3807 56.1047 21.2407 56.2074 21.082V17.75ZM64.4343 23L64.3503 22.482C64.1823 22.6593 63.963 22.818 63.6923 22.958C63.4217 23.0887 63.0997 23.154 62.7263 23.154C62.2317 23.154 61.7977 23.0607 61.4243 22.874C61.051 22.6873 60.7337 22.4353 60.4723 22.118C60.2203 21.7913 60.029 21.4133 59.8983 20.984C59.7677 20.5547 59.7023 20.0927 59.7023 19.598C59.7023 19.1593 59.7723 18.73 59.9123 18.31C60.0523 17.89 60.2623 17.5167 60.5423 17.19C60.8223 16.854 61.1723 16.588 61.5923 16.392C62.0123 16.1867 62.507 16.084 63.0763 16.084C63.4403 16.084 63.8417 16.1493 64.2803 16.28V13.746L66.1003 13.466V23H64.4343ZM64.2803 17.75C63.9163 17.6193 63.5897 17.554 63.3003 17.554C62.9923 17.554 62.7217 17.61 62.4883 17.722C62.2643 17.834 62.0777 17.988 61.9283 18.184C61.779 18.3707 61.667 18.5853 61.5923 18.828C61.5177 19.0613 61.4803 19.304 61.4803 19.556C61.4803 19.8453 61.5083 20.1207 61.5643 20.382C61.6297 20.634 61.7277 20.858 61.8583 21.054C61.989 21.2407 62.1523 21.39 62.3483 21.502C62.5537 21.614 62.801 21.67 63.0903 21.67C63.3143 21.67 63.543 21.614 63.7763 21.502C64.0097 21.3807 64.1777 21.2407 64.2803 21.082V17.75ZM73.392 17.652V21.096C73.392 21.3107 73.4387 21.46 73.532 21.544C73.6347 21.6187 73.7327 21.656 73.826 21.656C74.0127 21.656 74.1947 21.6093 74.372 21.516C74.5494 21.4227 74.7034 21.3247 74.834 21.222L75.492 22.468C75.184 22.6733 74.862 22.8413 74.526 22.972C74.19 23.0933 73.826 23.154 73.434 23.154C73.2007 23.154 72.972 23.1213 72.748 23.056C72.524 22.9907 72.3234 22.888 72.146 22.748C71.978 22.608 71.838 22.426 71.726 22.202C71.6234 21.9687 71.572 21.6887 71.572 21.362V17.652H70.578V16.252H71.572V14.684L73.392 14.404V16.252H75.142L74.918 17.652H73.392ZM79.6943 23.154C79.125 23.154 78.6257 23.0513 78.1963 22.846C77.7763 22.6407 77.4217 22.37 77.1323 22.034C76.8523 21.698 76.6423 21.32 76.5023 20.9C76.3623 20.4707 76.2923 20.0367 76.2923 19.598C76.2923 19.1593 76.3623 18.73 76.5023 18.31C76.6423 17.89 76.8523 17.5167 77.1323 17.19C77.4217 16.854 77.7763 16.588 78.1963 16.392C78.6257 16.1867 79.125 16.084 79.6943 16.084C80.2637 16.084 80.7583 16.1867 81.1783 16.392C81.6077 16.588 81.9623 16.854 82.2423 17.19C82.5317 17.5167 82.7463 17.89 82.8863 18.31C83.0263 18.73 83.0963 19.1593 83.0963 19.598C83.0963 20.0367 83.0263 20.4707 82.8863 20.9C82.7463 21.32 82.5317 21.698 82.2423 22.034C81.9623 22.37 81.6077 22.6407 81.1783 22.846C80.7583 23.0513 80.2637 23.154 79.6943 23.154ZM78.0843 19.598C78.0843 19.8873 78.117 20.158 78.1823 20.41C78.257 20.6527 78.3597 20.8673 78.4903 21.054C78.6303 21.2407 78.7983 21.39 78.9943 21.502C79.1997 21.6047 79.433 21.656 79.6943 21.656C79.9557 21.656 80.1843 21.6047 80.3803 21.502C80.5857 21.39 80.7537 21.2407 80.8843 21.054C81.0243 20.8673 81.127 20.6527 81.1923 20.41C81.267 20.158 81.3043 19.8873 81.3043 19.598C81.3043 19.318 81.267 19.052 81.1923 18.8C81.127 18.548 81.0243 18.3333 80.8843 18.156C80.7537 17.9693 80.5857 17.8247 80.3803 17.722C80.1843 17.61 79.9557 17.554 79.6943 17.554C79.433 17.554 79.1997 17.61 78.9943 17.722C78.7983 17.8247 78.6303 17.9693 78.4903 18.156C78.3597 18.3333 78.257 18.548 78.1823 18.8C78.117 19.052 78.0843 19.318 78.0843 19.598ZM88.0224 23V13.662H89.9124V21.306H94.6164V23H88.0224ZM97.2867 20.06C97.3147 20.34 97.3753 20.5827 97.4687 20.788C97.562 20.9933 97.6787 21.1613 97.8187 21.292C97.9587 21.4227 98.1127 21.5207 98.2807 21.586C98.458 21.642 98.64 21.67 98.8267 21.67C99.1533 21.67 99.4473 21.614 99.7087 21.502C99.97 21.3807 100.241 21.124 100.521 20.732L101.879 21.558C101.487 22.146 101.039 22.5613 100.535 22.804C100.04 23.0373 99.452 23.154 98.7707 23.154C98.3227 23.154 97.898 23.084 97.4967 22.944C97.0953 22.804 96.7407 22.5893 96.4327 22.3C96.134 22.0013 95.896 21.6327 95.7187 21.194C95.5413 20.7553 95.4527 20.2327 95.4527 19.626C95.4527 19.0567 95.5367 18.5527 95.7047 18.114C95.882 17.6753 96.12 17.3067 96.4187 17.008C96.7173 16.7093 97.0627 16.4807 97.4547 16.322C97.856 16.1633 98.2807 16.084 98.7287 16.084C99.6713 16.084 100.427 16.4153 100.997 17.078C101.575 17.7313 101.874 18.7253 101.893 20.06H97.2867ZM100.031 18.814C100.012 18.59 99.9607 18.394 99.8767 18.226C99.802 18.058 99.704 17.918 99.5827 17.806C99.4613 17.694 99.326 17.61 99.1767 17.554C99.0273 17.498 98.878 17.47 98.7287 17.47C98.4113 17.47 98.1127 17.5913 97.8327 17.834C97.5527 18.0673 97.3847 18.394 97.3287 18.814H100.031ZM107.246 23L107.162 22.496C106.966 22.7013 106.714 22.8647 106.406 22.986C106.107 23.098 105.776 23.154 105.412 23.154C105.113 23.154 104.819 23.1027 104.53 23C104.25 22.9067 104.003 22.7713 103.788 22.594C103.573 22.4073 103.401 22.1833 103.27 21.922C103.139 21.6513 103.074 21.348 103.074 21.012C103.074 20.5173 103.205 20.1207 103.466 19.822C103.737 19.514 104.073 19.276 104.474 19.108C104.875 18.94 105.309 18.8233 105.776 18.758C106.243 18.6927 106.677 18.646 107.078 18.618V18.394C107.078 18.114 106.994 17.8947 106.826 17.736C106.667 17.568 106.425 17.484 106.098 17.484C105.837 17.484 105.599 17.54 105.384 17.652C105.179 17.7547 104.997 17.8993 104.838 18.086L103.592 17.218C103.769 16.994 103.97 16.8073 104.194 16.658C104.427 16.5087 104.661 16.392 104.894 16.308C105.137 16.224 105.375 16.168 105.608 16.14C105.841 16.1027 106.056 16.084 106.252 16.084C106.644 16.084 107.003 16.1353 107.33 16.238C107.657 16.3313 107.937 16.4853 108.17 16.7C108.413 16.9053 108.599 17.1713 108.73 17.498C108.861 17.8153 108.926 18.2027 108.926 18.66V23H107.246ZM107.092 19.85C106.831 19.8687 106.565 19.892 106.294 19.92C106.033 19.948 105.795 19.9993 105.58 20.074C105.365 20.1487 105.188 20.2607 105.048 20.41C104.917 20.55 104.852 20.7367 104.852 20.97C104.852 21.194 104.936 21.376 105.104 21.516C105.272 21.6467 105.519 21.712 105.846 21.712C106.079 21.712 106.303 21.6653 106.518 21.572C106.742 21.4787 106.933 21.362 107.092 21.222V19.85ZM112.778 23L109.796 16.252H111.742L113.604 20.732L115.396 16.252H117.258L114.36 23H112.778ZM119.592 20.06C119.62 20.34 119.68 20.5827 119.774 20.788C119.867 20.9933 119.984 21.1613 120.124 21.292C120.264 21.4227 120.418 21.5207 120.586 21.586C120.763 21.642 120.945 21.67 121.132 21.67C121.458 21.67 121.752 21.614 122.014 21.502C122.275 21.3807 122.546 21.124 122.826 20.732L124.184 21.558C123.792 22.146 123.344 22.5613 122.84 22.804C122.345 23.0373 121.757 23.154 121.076 23.154C120.628 23.154 120.203 23.084 119.802 22.944C119.4 22.804 119.046 22.5893 118.738 22.3C118.439 22.0013 118.201 21.6327 118.024 21.194C117.846 20.7553 117.758 20.2327 117.758 19.626C117.758 19.0567 117.842 18.5527 118.01 18.114C118.187 17.6753 118.425 17.3067 118.724 17.008C119.022 16.7093 119.368 16.4807 119.76 16.322C120.161 16.1633 120.586 16.084 121.034 16.084C121.976 16.084 122.732 16.4153 123.302 17.078C123.88 17.7313 124.179 18.7253 124.198 20.06H119.592ZM122.336 18.814C122.317 18.59 122.266 18.394 122.182 18.226C122.107 18.058 122.009 17.918 121.888 17.806C121.766 17.694 121.631 17.61 121.482 17.554C121.332 17.498 121.183 17.47 121.034 17.47C120.716 17.47 120.418 17.5913 120.138 17.834C119.858 18.0673 119.69 18.394 119.634 18.814H122.336ZM128.896 23V13.746L130.73 13.466V23H128.896ZM133.736 15.482C133.372 15.482 133.097 15.3793 132.91 15.174C132.733 14.9687 132.644 14.74 132.644 14.488C132.644 14.2453 132.733 14.0213 132.91 13.816C133.097 13.6107 133.372 13.508 133.736 13.508C134.1 13.508 134.371 13.6107 134.548 13.816C134.735 14.0213 134.828 14.2453 134.828 14.488C134.828 14.74 134.735 14.9687 134.548 15.174C134.371 15.3793 134.1 15.482 133.736 15.482ZM132.826 23V16.434L134.646 16.154V23H132.826ZM137.597 20.732C137.755 21.0307 137.979 21.2827 138.269 21.488C138.558 21.684 138.941 21.782 139.417 21.782C140.154 21.782 140.523 21.5627 140.523 21.124C140.523 21.0307 140.499 20.942 140.453 20.858C140.415 20.774 140.336 20.6947 140.215 20.62C140.093 20.5453 139.93 20.4753 139.725 20.41C139.519 20.3447 139.258 20.2793 138.941 20.214C138.586 20.1393 138.259 20.0507 137.961 19.948C137.671 19.836 137.424 19.7007 137.219 19.542C137.013 19.374 136.855 19.178 136.743 18.954C136.631 18.7207 136.575 18.4407 136.575 18.114C136.575 17.8153 136.64 17.5447 136.771 17.302C136.901 17.05 137.083 16.8353 137.317 16.658C137.559 16.4713 137.853 16.3313 138.199 16.238C138.544 16.1353 138.927 16.084 139.347 16.084C140.112 16.084 140.719 16.21 141.167 16.462C141.615 16.7047 141.96 17.0033 142.203 17.358L140.915 18.24C140.747 18.016 140.532 17.8293 140.271 17.68C140.009 17.5307 139.701 17.456 139.347 17.456C138.964 17.456 138.693 17.5167 138.535 17.638C138.385 17.75 138.311 17.8993 138.311 18.086C138.311 18.3007 138.404 18.4547 138.591 18.548C138.777 18.6413 139.123 18.7393 139.627 18.842C140.037 18.926 140.401 19.0287 140.719 19.15C141.045 19.262 141.321 19.402 141.545 19.57C141.769 19.738 141.937 19.9433 142.049 20.186C142.17 20.4193 142.231 20.704 142.231 21.04C142.231 21.404 142.156 21.7213 142.007 21.992C141.857 22.2533 141.652 22.4727 141.391 22.65C141.129 22.818 140.821 22.944 140.467 23.028C140.112 23.112 139.734 23.154 139.333 23.154C138.53 23.154 137.877 23.0047 137.373 22.706C136.878 22.398 136.5 22.0153 136.239 21.558L137.597 20.732ZM145.932 17.652V21.096C145.932 21.3107 145.978 21.46 146.072 21.544C146.174 21.6187 146.272 21.656 146.366 21.656C146.552 21.656 146.734 21.6093 146.912 21.516C147.089 21.4227 147.243 21.3247 147.374 21.222L148.032 22.468C147.724 22.6733 147.402 22.8413 147.066 22.972C146.73 23.0933 146.366 23.154 145.974 23.154C145.74 23.154 145.512 23.1213 145.288 23.056C145.064 22.9907 144.863 22.888 144.686 22.748C144.518 22.608 144.378 22.426 144.266 22.202C144.163 21.9687 144.112 21.6887 144.112 21.362V17.652H143.118V16.252H144.112V14.684L145.932 14.404V16.252H147.682L147.458 17.652H145.932Z" fill="#38AEE0"/>
</svg>
