<svg width="20" height="24" viewBox="0 0 20 24" fill="none" xmlns="http://www.w3.org/2000/svg">
<path d="M19.1766 6.01605L13.4123 0.251786C13.2516 0.0910715 13.0347 0 12.807 0H1.42843C0.954325 0 0.571289 0.383036 0.571289 0.857145V23.1429C0.571289 23.617 0.954325 24 1.42843 24H18.5713C19.0454 24 19.4284 23.617 19.4284 23.1429V6.6241C19.4284 6.39645 19.3373 6.1768 19.1766 6.01605ZM17.4516 7.01785H12.4106V1.97678L17.4516 7.01785ZM17.4998 22.0714H2.49986V1.92857H10.5891V7.7143C10.5891 8.02495 10.699 8.2901 10.9186 8.5098C11.1383 8.72945 11.4035 8.8393 11.7141 8.8393H17.4998V22.0714ZM9.78559 14.8393H4.857C4.73914 14.8393 4.64272 14.9357 4.64272 15.0535V16.3393C4.64272 16.4571 4.73914 16.5536 4.857 16.5536H9.78559C9.90344 16.5536 9.99984 16.4571 9.99984 16.3393V15.0535C9.99984 14.9357 9.90344 14.8393 9.78559 14.8393ZM4.64272 11.4107V12.6965C4.64272 12.8143 4.73914 12.9107 4.857 12.9107H15.1427C15.2606 12.9107 15.357 12.8143 15.357 12.6965V11.4107C15.357 11.2928 15.2606 11.1965 15.1427 11.1965H4.857C4.73914 11.1965 4.64272 11.2928 4.64272 11.4107Z" fill="#5856D6"/>
</svg>
